<svg id="Layer_1" data-name="Layer 1" xmlns="http://www.w3.org/2000/svg" viewBox="0 0 800 800"><defs><style>.cls-1{fill:#2b6aff;}.cls-2{fill:#fefefe;}.cls-3{fill:none;}</style></defs><title>coinmarketcap-logo-freelogovectors.net</title><path class="cls-1" d="M765.88,396.19q0,101.1,0,202.19c-.05,20.37-1.54,40.64-5.71,60.69-6.5,31.25-23.67,55.61-47.88,75.6-19.5,16.12-42.09,24.79-67,28a412.36,412.36,0,0,1-52.91,3.22q-197,0-393.92-.1a283.07,283.07,0,0,1-58-5.73c-22.27-4.67-41.44-15.23-58.24-30.28-17.94-16.07-31.65-35.07-39-58.27-4.2-13.26-6.26-26.92-7.38-40.74C34,609.2,34.1,587.58,34.11,566q0-184.5.11-369c0-22.78,2.05-45.49,8.51-67.54,4.59-15.67,12.85-29.41,23-42C81,68.61,99.54,54.13,122.21,45.28c12.89-5,26.42-7.47,40.12-8.91,19.66-2.06,39.39-2.28,59.14-2.27q185.18.07,370.33,0c14.3,0,28.58.09,42.8,1.74,27,3.13,52.7,9.92,74.68,26.74C736,83,753.53,109.48,760.48,142.7a257.33,257.33,0,0,1,5.4,52.64Q765.9,295.77,765.88,396.19Z"/><path class="cls-2" d="M483.19,369.57q-6,9.36-11.93,18.7c-14.86,23.46-29.15,47.27-43.66,71-4.59,7.49-10.08,14.27-17.26,19.58-22,16.25-44.66-.25-47.27-19.37A285,285,0,0,1,360,422.1c-.06-14.48,0-29,0-43.44,0-2.11-.2-4.22-.31-6.34-1,0-1.1.76-1.39,1.25-27.39,45.33-56.17,89.78-84.2,134.71-1.7,2.73-3.34,5.49-5.12,8.17-.83,1.23-.83,2,.29,3.15,28.33,29.29,61.9,49.06,102.53,55.32,49.26,7.58,94.13-3.47,134.19-33.31,4.86-3.63,9.28-7.85,14.08-11.56,5.91-4.56,12.41-7.43,20.17-5.62a6,6,0,0,1,2.83,1.39,73.14,73.14,0,0,0,5.6,5c6,4.42,6.31,10.35,4.66,16.79-2,7.68-7.34,13-13.15,17.81-27.23,22.62-57.8,38.71-92.58,46-66.61,14.06-127.27.68-180.83-41.44-40.82-32.11-66.7-74.13-78.07-124.88-5.9-26.34-6.46-52.87-2.54-79.59,12.19-83,71.41-145.85,137.69-171.09A205.59,205.59,0,0,1,390.64,181c25-.83,49.55,1.4,73.49,9.07a216.42,216.42,0,0,1,85.3,50.78c33.35,32.16,54.27,71.13,63.08,116.55,4.29,22.16,5.28,44.56,1.74,66.89-4.27,26.94-26.13,53.56-55.64,59.21-29.18,5.58-56.41-9.5-68.22-38-5.08-12.26-6.47-25.18-6.52-38.29-.05-12.07,0-24.13,0-36.2,0-.41,0-.83-.06-1.25Z"/><path class="cls-1" d="M399.41,427.89V409.77c0-24.94.11-49.87-.17-74.8-.11-10.09-2.36-19.74-9.81-27.3a23.1,23.1,0,0,0-25.49-4.9,34.58,34.58,0,0,0-14.79,12.4c-8.78,12.5-16.16,25.9-24.54,38.66-26.84,40.86-51.75,82.93-78.2,124-2.12,3.29-3.88,3.35-5.73-.33-2.2-4.36-4.09-8.9-5.87-13.46a172.14,172.14,0,0,1-12-60.87c-.56-43.6,11.63-83.07,39.14-117.11,27-33.43,61.67-55.14,104.12-62.94C427.4,211.9,480.57,229,524.9,272.28c27.57,26.93,43.62,60.34,50,98.37a156.82,156.82,0,0,1,1.48,42.44c-1.1,10.38-5.34,19.5-13.61,26.18-6.86,5.52-14.72,8.59-23.42,5.15-9.16-3.62-13.87-11.14-15.46-20.66-2.34-14-2-28.1-1.71-42.21.22-12.05,1-24.22-1.61-36.06-3.06-13.81-11.09-23.63-25.38-27.17-6.92-1.71-13.26.57-19.27,3.75-9.14,4.85-16,12.29-21.84,20.59-10.43,14.72-19.38,30.41-28.95,45.69q-12,19.18-24.05,38.35c-.27.44-.57.87-.85,1.3Z"/><rect class="cls-3" width="800" height="800"/></svg>